<svg width="21" height="21" viewBox="0 0 21 21" fill="none" xmlns="http://www.w3.org/2000/svg">
<g clip-path="url(#clip0_192_317)">
<path d="M19.25 9.695V10.5C19.2489 12.3869 18.6379 14.2228 17.5082 15.7341C16.3784 17.2454 14.7904 18.3509 12.9809 18.8859C11.1715 19.4209 9.2376 19.3567 7.46766 18.7028C5.69772 18.0489 4.18657 16.8403 3.15959 15.2574C2.13261 13.6745 1.64482 11.8021 1.76897 9.91928C1.89312 8.0365 2.62256 6.24429 3.84849 4.80994C5.07443 3.3756 6.73119 2.37596 8.57167 1.96013C10.4121 1.5443 12.3377 1.73455 14.0613 2.5025" stroke="#5E6B75" stroke-width="2" stroke-linecap="round" stroke-linejoin="round"/>
<path d="M19.25 3.5L10.5 12.2587L7.875 9.63375" stroke="#5E6B75" stroke-width="2" stroke-linecap="round" stroke-linejoin="round"/>
</g>
<defs>
<clipPath id="clip0_192_317">
<rect width="21" height="21" fill="white"/>
</clipPath>
</defs>
</svg>
