<svg width="24" height="25" viewBox="0 0 24 25" fill="none" xmlns="http://www.w3.org/2000/svg">
<path d="M7 8.5C7 5.73858 9.23858 3.5 12 3.5C14.7614 3.5 17 5.73858 17 8.5C17 11.2614 14.7614 13.5 12 13.5C9.23858 13.5 7 11.2614 7 8.5ZM12 11.5C13.6569 11.5 15 10.1568 15 8.5C15 6.84315 13.6569 5.5 12 5.5C10.3431 5.5 9 6.84315 9 8.5C9 10.1568 10.3431 11.5 12 11.5Z" fill="#5E6B75"/>
<path d="M6.34315 16.8431C4.84285 18.3434 4 20.3783 4 22.5H6C6 20.9087 6.63214 19.3826 7.75736 18.2574C8.88258 17.1321 10.4087 16.5 12 16.5C13.5913 16.5 15.1174 17.1321 16.2426 18.2574C17.3679 19.3826 18 20.9087 18 22.5H20C20 20.3783 19.1571 18.3434 17.6569 16.8431C16.1566 15.3429 14.1217 14.5 12 14.5C9.87827 14.5 7.84344 15.3429 6.34315 16.8431Z" fill="#5E6B75"/>
</svg>
