<svg width="16" height="16" viewBox="0 0 16 16" fill="none" xmlns="http://www.w3.org/2000/svg">
<path d="M7.86729 0.869344C7.98823 0.503347 8.50595 0.503346 8.62689 0.869343L10.1748 5.55376C10.229 5.7176 10.3821 5.82826 10.5546 5.82826H15.5493C15.9384 5.82826 16.0985 6.32754 15.7818 6.55374L11.7527 9.43214C11.6101 9.53399 11.5505 9.71676 11.6054 9.88312L13.1471 14.5487C13.2685 14.9161 12.8496 15.2246 12.5348 14.9997L8.47961 12.1027C8.34052 12.0033 8.15366 12.0033 8.01457 12.1027L3.95936 14.9997C3.64457 15.2246 3.22566 14.9161 3.34704 14.5487L4.88876 9.88312C4.94373 9.71676 4.88404 9.53399 4.74147 9.43214L0.712355 6.55374C0.395732 6.32754 0.555754 5.82826 0.944875 5.82826H5.93956C6.11211 5.82826 6.26522 5.71761 6.31936 5.55376L7.86729 0.869344Z" fill="#F87419"/>
</svg>
