<svg width="17" height="16" viewBox="0 0 17 16" fill="none" xmlns="http://www.w3.org/2000/svg">
<path d="M7.95225 0.869344C8.07319 0.503347 8.59091 0.503346 8.71185 0.869343L10.2598 5.55376C10.3139 5.7176 10.467 5.82826 10.6396 5.82826H15.6343C16.0234 5.82826 16.1834 6.32754 15.8668 6.55374L11.8377 9.43214C11.6951 9.53399 11.6354 9.71676 11.6904 9.88312L13.2321 14.5487C13.3535 14.9161 12.9346 15.2246 12.6198 14.9997L8.56457 12.1027C8.42548 12.0033 8.23862 12.0033 8.09953 12.1027L4.04432 14.9997C3.72953 15.2246 3.31062 14.9161 3.432 14.5487L4.97372 9.88312C5.02869 9.71676 4.969 9.53399 4.82644 9.43214L0.797316 6.55374C0.480693 6.32754 0.640715 5.82826 1.02984 5.82826H6.02452C6.19707 5.82826 6.35018 5.71761 6.40432 5.55376L7.95225 0.869344Z" fill="#BABABA"/>
</svg>
