<svg width="20" height="19" viewBox="0 0 20 19" fill="none" xmlns="http://www.w3.org/2000/svg">
<path d="M10 18.5C9.355 17.928 8.626 17.333 7.85502 16.7H7.84502C5.13002 14.48 2.05302 11.968 0.694021 8.95803C0.247541 7.99973 0.0109314 6.95715 1.13924e-05 5.90003C-0.00296861 4.44951 0.578791 3.05901 1.61383 2.04279C2.64887 1.02657 4.04981 0.470416 5.50002 0.500026C6.68065 0.501886 7.83586 0.843106 8.828 1.48303C9.264 1.76599 9.6584 2.10828 10 2.50003C10.3435 2.10982 10.7381 1.76773 11.173 1.48303C12.1648 0.842976 13.3197 0.501736 14.5 0.500026C15.9502 0.470416 17.3512 1.02657 18.3862 2.04279C19.4213 3.05901 20.003 4.44951 20 5.90003C19.9898 6.95884 19.7532 8.00323 19.306 8.96303C17.947 11.973 14.871 14.484 12.156 16.7L12.146 16.708C11.374 17.337 10.646 17.932 10.001 18.508L10 18.5ZM5.50002 2.50003C4.56853 2.48837 3.6701 2.84487 3.00002 3.49203C2.35441 4.12619 1.99358 4.99507 1.99994 5.90003C2.01135 6.67053 2.18585 7.42988 2.51202 8.12803C3.15353 9.42673 4.01913 10.602 5.06902 11.6C6.06002 12.6 7.20002 13.568 8.186 14.382C8.459 14.607 8.737 14.834 9.015 15.061L9.19 15.204C9.457 15.422 9.733 15.648 10 15.87L10.013 15.858L10.019 15.853H10.025L10.034 15.846H10.039H10.044L10.062 15.831L10.103 15.798L10.11 15.792L10.121 15.784H10.127L10.136 15.776L10.8 15.231L10.974 15.088C11.255 14.859 11.533 14.632 11.806 14.407C12.792 13.593 13.933 12.626 14.924 11.621C15.9741 10.6236 16.8397 9.44853 17.481 8.15003C17.8131 7.44583 17.9901 6.67853 18.0001 5.90003C18.0042 4.99786 17.6435 4.13232 17 3.50003C16.3312 2.84995 15.4326 2.49051 14.5 2.50003C13.3619 2.49035 12.274 2.96739 11.51 3.81103L10 5.55103L8.49 3.81103C7.72609 2.96739 6.6381 2.49035 5.50002 2.50003Z" fill="#5E6B75"/>
</svg>
