<svg width="43" height="39" viewBox="0 0 43 39" fill="none" xmlns="http://www.w3.org/2000/svg">
<path d="M38.812 5.02795C37.8118 4.02725 36.6242 3.23343 35.3171 2.69182C34.01 2.15022 32.6089 1.87146 31.1941 1.87146C29.7792 1.87146 28.3782 2.15022 27.0711 2.69182C25.764 3.23343 24.5764 4.02725 23.5762 5.02795L21.5003 7.10378L19.4245 5.02795C17.4041 3.00755 14.6638 1.87251 11.8066 1.87251C8.94929 1.87251 6.20905 3.00755 4.18865 5.02795C2.16825 7.04835 1.0332 9.78859 1.0332 12.6459C1.0332 15.5031 2.16825 18.2434 4.18865 20.2638L6.26448 22.3396L21.5003 37.5754L36.7362 22.3396L38.812 20.2638C39.8127 19.2636 40.6065 18.076 41.1481 16.7689C41.6897 15.4617 41.9685 14.0607 41.9685 12.6459C41.9685 11.231 41.6897 9.82999 41.1481 8.52288C40.6065 7.21577 39.8127 6.02818 38.812 5.02795V5.02795Z" stroke="#BD3D3D" stroke-width="2" stroke-linecap="round" stroke-linejoin="round"/>
</svg>
