 <svg width="1288" height="480" viewBox="0 0 1288 480" fill="none" id="animate" xmlns="http://www.w3.org/2000/svg">
        <mask id="path-1-inside-1_10_95" fill="white">
        <path d="M242.549 300.174C243.619 300.764 243.159 304.294 242.219 311.354C241.663 315.558 240.859 319.725 239.809 323.834C236.049 340.324 229.619 356.494 222.189 371.664C214.76 386.84 205.846 401.244 195.579 414.664C185.522 427.812 174.194 439.937 161.759 450.864C148.759 462.274 134.159 472.544 117.429 476.944C81.2291 486.464 41.8691 465.304 21.7191 433.764C1.56913 402.224 -2.28087 362.764 1.07913 325.464C5.99913 271.864 24.6891 220.464 46.8491 171.464C71.0291 117.954 100.429 65.2341 144.659 26.6141C158.489 14.4841 174.329 3.63409 192.439 0.674092C210.549 -2.28591 231.259 4.52409 240.059 20.6741C250.059 38.9541 242.189 61.4441 234.239 80.6741L199.669 164.354C195.719 173.924 191.319 184.054 182.669 189.784C174.019 195.514 159.949 194.094 156.089 184.494C152.769 176.234 158.309 167.324 163.319 159.954C188.681 122.579 206.389 80.5501 215.419 36.2941C216.639 30.2941 216.819 22.5341 211.309 19.9641C206.769 17.8441 201.609 21.0241 197.689 24.1441C135.979 73.2041 97.3391 145.684 68.5791 219.164C44.0991 281.734 25.3791 350.684 42.8291 415.574C47.3591 432.424 56.3691 450.574 73.1791 455.244C83.6191 458.144 94.7691 455.054 104.719 450.784C119.4 444.34 132.984 435.642 144.979 425.004C157.077 414.252 168.019 402.267 177.629 389.244C187.393 376.068 196.391 362.342 204.579 348.134C204.939 347.514 206.579 344.434 209.089 340.374C209.089 340.374 210.909 337.374 212.829 334.484C216.059 329.544 238.089 297.704 242.549 300.174ZM498.249 282.514C494.609 266.364 475.789 255.754 461.029 251.634C451.129 248.874 439.669 249.154 430.759 254.734C423.599 259.224 418.259 266.134 413.919 273.264C402.919 291.264 392.559 316.484 397.379 338.264C403.469 329.784 409.379 321.824 414.509 323.184C414.915 323.29 415.302 323.455 415.659 323.674C421.729 327.394 412.309 344.734 410.609 348.954C409.496 351.737 408.098 354.398 406.439 356.894C413.129 364.984 423.859 372.284 434.519 372.824H434.629C443.108 373.112 451.475 370.825 458.629 366.264C475.689 355.564 485.679 335.874 492.499 317.604C496.399 307.084 500.799 293.834 498.249 282.514ZM472.309 303.184C468.876 315.119 463.57 326.433 456.589 336.704C453.079 341.914 449.109 346.934 443.979 350.564C439.479 353.744 430.899 357.284 424.979 355.444C418.339 353.384 418.319 345.344 419.079 339.664C421.043 326.059 424.897 312.794 430.529 300.254C435.649 288.594 441.609 276.654 450.659 267.524C453.979 264.174 458.819 259.934 463.859 260.264C471.859 260.784 475.159 270.814 475.859 277.444C476.689 286.124 474.649 294.884 472.309 303.184ZM1005.47 287.894C1001.83 271.744 983.009 261.124 968.249 257.014C958.349 254.254 946.889 254.524 937.979 260.114C930.819 264.594 925.479 271.504 921.139 278.634C912.429 292.954 904.139 311.774 903.439 329.794C905.54 325.91 907.136 321.773 908.189 317.484C909.549 311.984 910.289 305.964 914.019 301.484C915.789 299.334 918.649 298.934 920.329 301.484C921.719 303.614 921.909 306.704 922.279 309.154C922.749 312.264 923.03 315.4 923.119 318.544C923.349 326.764 922.729 335.284 919.729 343.024C917.736 348.373 914.161 352.988 909.479 356.254C910.538 358.081 911.728 359.829 913.039 361.484C919.689 369.884 930.739 377.614 941.739 378.184H941.849C950.327 378.475 958.694 376.191 965.849 371.634C982.909 360.924 992.909 341.244 999.719 322.964C1003.62 312.464 1007.98 299.214 1005.47 287.894ZM979.529 308.564C976.098 320.498 970.795 331.812 963.819 342.084C960.299 347.294 956.329 352.314 951.199 355.944C946.699 359.124 938.119 362.664 932.199 360.824C925.559 358.764 925.539 350.724 926.299 345.034C928.264 331.429 932.118 318.164 937.749 305.624C942.859 294.004 948.819 282.004 957.879 272.904C961.189 269.554 966.029 265.304 971.069 265.634C979.069 266.154 982.369 276.194 983.069 282.824C983.909 291.494 981.879 300.264 979.529 308.564ZM683.299 354.294C682.919 350.714 684.139 348.294 680.579 348.854C675.879 349.594 675.509 349.104 671.919 349.344C637.549 351.664 602.919 347.574 568.609 344.414C551.459 342.844 568.219 325.914 573.259 319.364C597.819 287.464 628.259 258.744 665.809 242.924C669.989 241.164 675.129 238.084 674.149 233.654C673.619 232.005 672.643 230.534 671.329 229.404C665.779 223.734 658.779 217.904 650.919 218.984C646.539 219.594 642.769 222.284 639.239 224.984C624.799 235.894 611.449 246.214 598.429 258.814C593.429 263.704 580.129 277.624 567.749 291.724C568.509 280.574 578.959 260.444 582.859 250.054C586.949 239.164 591.349 228.404 595.099 217.394C603.259 193.434 611.286 169.434 619.179 145.394C630.799 109.934 644.389 72.0041 641.859 34.2041C641.489 28.6441 640.709 23.0141 638.439 17.9141C632.659 5.00409 615.979 -0.995908 602.909 4.00409C591.639 8.36409 584.399 19.2841 578.909 29.4941C564.809 55.7941 556.619 83.7141 547.689 111.984C544.089 123.384 540.589 136.784 537.189 152.184C536.419 155.694 535.569 159.184 534.789 162.704C517.279 241.364 510.039 321.584 515.719 402.004C516.019 406.294 516.419 410.754 518.649 414.434C521.869 419.744 528.179 422.234 534.139 423.954C535.816 424.496 537.552 424.831 539.309 424.954C541.086 425.096 542.857 424.608 544.309 423.574C547.469 421.154 547.409 416.464 547.049 412.504C545.649 397.154 543.859 379.274 542.469 363.934C588.469 371.354 636.189 370.084 680.279 361.934C685.179 361.064 683.799 359.004 683.299 354.294ZM556.849 218.354C567.056 155.182 583.782 93.2379 606.759 33.5141C608.919 27.9441 616.659 14.9141 622.119 24.1941C625.349 29.6941 624.169 39.0841 623.849 45.0941C623.171 59.2832 621.186 73.3795 617.919 87.2041C615.919 95.6341 613.479 103.974 610.919 112.284C605.919 128.754 601.109 145.284 596.019 161.714C588.209 186.714 580.019 211.524 569.319 235.484C563.629 248.264 558.049 261.324 551.369 273.634C551.159 258.004 554.309 233.854 556.849 218.354ZM1194.35 355.354C1193.98 351.774 1195.19 349.354 1191.63 349.914C1186.93 350.654 1186.56 350.164 1182.97 350.404C1148.6 352.724 1113.97 348.634 1079.67 345.484C1062.51 343.904 1079.27 326.974 1084.31 320.424C1108.87 288.524 1139.31 259.804 1176.86 243.994C1181.04 242.224 1186.18 239.154 1185.2 234.724C1184.67 233.072 1183.69 231.598 1182.38 230.464C1176.83 224.794 1169.84 218.974 1161.97 220.054C1157.59 220.654 1153.82 223.344 1150.29 226.054C1135.85 236.964 1122.5 247.284 1109.49 259.894C1104.49 264.784 1091.18 278.694 1078.81 292.794C1079.56 281.654 1090.01 261.514 1093.92 251.124C1098.01 240.244 1102.4 229.474 1106.15 218.464C1114.31 194.517 1122.34 170.517 1130.23 146.464C1141.85 111.034 1155.44 73.1541 1152.91 35.3041C1152.54 29.7441 1151.76 24.1141 1149.49 19.0241C1143.71 6.08409 1126.98 0.0740919 1113.98 5.11409C1102.71 9.47409 1095.47 20.3941 1089.98 30.6041C1075.88 56.9041 1067.69 84.8241 1058.77 113.094C1055.17 124.494 1051.67 137.894 1048.27 153.294C1047.49 156.804 1046.65 160.294 1045.86 163.824C1028.35 242.474 1021.1 322.694 1026.78 403.154C1027.08 407.444 1027.48 411.914 1029.71 415.584C1032.93 420.894 1039.24 423.384 1045.21 425.114C1046.89 425.657 1048.62 425.992 1050.38 426.114C1052.16 426.254 1053.93 425.765 1055.38 424.734C1058.53 422.314 1058.47 417.624 1058.11 413.664C1056.71 398.324 1054.93 380.444 1053.53 365.094C1099.53 372.514 1147.25 371.244 1191.34 363.094C1196.23 362.184 1194.85 360.104 1194.35 355.404V355.354ZM1067.9 219.474C1078.1 156.302 1094.83 94.3571 1117.81 34.6341C1119.97 29.0541 1127.71 16.0241 1133.17 25.3141C1136.4 30.8141 1135.17 40.1941 1134.9 46.2041C1134.22 60.3929 1132.24 74.4893 1128.98 88.3141C1122.84 113.484 1113.74 137.804 1107.36 162.894L1101.06 180.594C1095.63 200.314 1089 219.704 1079.65 237.934C1074.31 248.364 1068 264.564 1062.48 274.744C1062.21 259.144 1065.36 235.004 1067.9 219.474ZM923.119 318.474C923.03 315.33 922.749 312.194 922.279 309.084C921.909 306.634 921.719 303.544 920.329 301.414C918.649 298.844 915.789 299.244 914.019 301.414C910.289 305.934 909.549 311.954 908.189 317.414C907.136 321.703 905.54 325.84 903.439 329.724C902.654 331.189 901.797 332.615 900.869 333.994C897.439 339.124 892.739 344.884 886.629 346.774C880.889 348.554 878.239 343.174 875.969 338.964C874.022 335.301 872.396 331.477 871.109 327.534C868.663 319.677 866.771 311.657 865.449 303.534C863.839 294.814 862.449 286.054 860.139 277.474C858.139 269.834 855.719 261.074 849.199 256.004C838.139 247.394 821.069 251.634 811.589 260.464C806.369 265.324 803.009 272.464 799.899 278.864C797.069 284.654 794.899 290.814 791.759 296.464C790.509 298.754 788.989 299.534 787.999 296.554C785.759 289.824 784.179 282.904 782.279 276.084C780.599 270.084 779.409 263.434 776.179 258.084C772.469 251.894 766.009 248.524 759.049 247.394C753.049 246.394 745.879 246.264 740.049 248.054C735.923 249.281 732.359 251.918 729.979 255.504C728.573 257.857 727.349 260.314 726.319 262.854C724.679 266.534 723.199 270.344 721.219 273.854C720.409 275.284 718.619 277.954 718.039 274.854C716.089 264.464 720.139 251.604 723.199 240.964C724.759 235.534 726.519 228.864 719.999 225.644C719.222 225.272 718.407 224.983 717.569 224.784C710.757 223.119 703.7 222.699 696.739 223.544C695.175 223.593 693.664 224.12 692.409 225.054C690.899 226.394 690.579 228.584 690.409 230.584C685.098 278.577 682.241 326.81 681.849 375.094C681.818 376.635 682.187 378.158 682.919 379.514C683.402 380.547 684.086 381.473 684.931 382.239C685.775 383.004 686.764 383.594 687.839 383.974C697.119 386.974 705.839 388.244 715.679 386.724C716.349 373.274 717.479 359.544 720.679 346.444C723.249 336.134 725.569 324.854 728.519 314.664C728.519 314.664 733.439 298.334 735.389 291.934L739.189 282.934C743.189 273.374 748.539 257.344 752.929 264.744C760.069 276.804 753.679 319.094 772.099 339.244C775.099 342.494 779.099 345.014 783.479 345.244C789.289 345.554 794.689 341.784 798.029 337.014C801.369 332.244 803.029 326.564 804.909 321.014C810.979 302.724 815.229 283.004 828.979 270.204C834.639 264.914 838.189 294.614 840.769 308.304C843.349 321.994 847.189 336.024 856.909 345.874C863.979 353.034 873.569 357.414 883.299 359.544C889.969 361.014 896.689 361.744 903.299 359.404C905.506 358.626 907.601 357.56 909.529 356.234C914.192 352.961 917.749 348.346 919.729 343.004C922.729 335.264 923.349 326.744 923.119 318.524V318.474ZM1286.07 267.144C1286.36 267.623 1286.62 268.12 1286.85 268.634C1287.5 270.179 1287.84 271.837 1287.85 273.514C1288.08 283.364 1285.38 295.104 1282.13 304.944C1276.01 323.494 1271.86 332.414 1265.62 345.944C1258.94 360.404 1255.04 365.604 1244.11 371.534C1239.9 373.836 1235.12 374.871 1230.34 374.516C1225.56 374.162 1220.99 372.431 1217.17 369.534C1209.17 363.434 1203.98 354.354 1200.44 344.964C1192.86 324.804 1192.24 302.724 1193.29 281.224C1193.77 268.911 1195.13 256.649 1197.38 244.534C1197.87 241.914 1199.21 239.529 1201.19 237.744C1203.35 235.754 1206.2 234.672 1209.14 234.72C1212.07 234.769 1214.88 235.944 1216.98 238.004C1224.14 244.594 1221.4 257.894 1220.13 265.834C1216.7 287.354 1213.81 311.004 1217.35 332.454C1218.3 338.254 1220.76 346.564 1223.84 351.564C1226.84 356.394 1231.33 358.884 1234.05 358.244C1240.36 356.764 1245.62 351.634 1248.34 347.674C1261.9 327.834 1267.01 300.084 1271.92 276.544C1272.35 273.865 1272.95 271.213 1273.7 268.604C1274.11 267.367 1274.87 266.273 1275.89 265.452C1276.9 264.631 1278.13 264.116 1279.43 263.968C1280.72 263.82 1282.03 264.045 1283.21 264.617C1284.38 265.188 1285.37 266.082 1286.05 267.194L1286.07 267.144ZM1230.21 211.804C1227.67 212.494 1224.14 211.094 1222.02 210.474C1214.82 208.354 1208.85 205.224 1206.87 197.314C1205.38 191.404 1206.65 185.114 1208.87 179.454C1209.38 177.781 1210.38 176.3 1211.75 175.204C1212.97 174.51 1214.34 174.113 1215.75 174.044C1219.35 173.624 1222.98 173.434 1226.61 173.474C1229.81 173.474 1232.61 174.684 1233.81 177.844C1234.32 179.378 1234.59 180.979 1234.63 182.594C1234.89 188.563 1234.76 194.543 1234.22 200.494C1234.04 203.854 1234.41 210.724 1230.21 211.854V211.804ZM415.689 323.644C415.332 323.425 414.945 323.26 414.539 323.154C409.399 321.794 403.539 329.754 397.409 338.234C388.669 350.414 379.539 363.644 371.699 351.834C364.059 340.334 366.139 320.734 365.089 307.524L360.979 256.004C359.979 243.244 351.309 230.634 336.889 235.464C320.619 240.914 310.839 262.354 304.409 276.734C296.819 293.734 291.579 311.634 285.699 329.264C283.999 334.364 278.119 345.664 279.069 350.774C276.069 334.614 273.069 317.864 277.069 301.914C282.449 280.154 297.019 258.444 307.429 238.644C317.629 219.244 325.829 202.344 332.029 187.944C345.689 156.204 356.849 123.284 363.689 89.3741C368.989 63.1341 380.379 17.9341 348.549 3.19409C332.899 -4.04591 313.549 3.73409 302.299 16.7641C288.979 32.0541 284.489 52.3741 278.569 71.1741C271.509 93.6141 265.279 116.314 260.169 139.284C251.399 178.704 246.279 218.644 245.879 259.004L245.579 289.004C245.579 318.004 247.179 340.004 250.379 355.004C254.779 377.604 269.179 404.304 270.779 405.704C272.378 407.104 274.204 408.22 276.179 409.004C277.985 409.764 279.92 410.171 281.879 410.204C282.891 410.24 283.895 410.01 284.79 409.536C285.685 409.062 286.44 408.361 286.979 407.504C289.179 404.504 291.079 397.404 292.679 386.204C293.754 376.504 295.458 366.884 297.779 357.404C302.469 338.954 307.019 320.574 312.079 302.214C312.999 298.894 313.909 295.564 315.019 292.304C317.899 283.874 322.309 273.574 328.609 266.134C329.102 265.556 329.76 265.143 330.495 264.95C331.23 264.758 332.006 264.794 332.719 265.056C333.432 265.317 334.048 265.79 334.485 266.412C334.921 267.034 335.156 267.775 335.159 268.534C335.269 281.964 335.639 295.074 337.399 308.664C339.509 324.964 342.069 341.974 351.719 355.274C360.079 366.794 375.719 374.974 389.929 370.274C396.819 367.984 402.419 362.954 406.439 356.834C408.098 354.338 409.496 351.677 410.609 348.894C412.309 344.694 421.729 327.354 415.659 323.634L415.689 323.644ZM276.779 249.424C277.779 230.224 280.029 207.024 283.529 179.824C287.279 151.375 292.942 123.211 300.479 95.5241C304.48 80.1928 309.426 65.124 315.289 50.4041C317.769 44.3141 320.139 38.2041 322.899 32.2341C326.899 23.5241 336.269 2.83409 344.349 20.6441C350.259 33.6441 351.809 48.3241 350.939 62.6441C347.489 119.644 321.649 175.074 296.589 225.344C293.119 232.344 289.669 239.284 286.079 246.174L275.879 265.674L276.779 249.424Z"/>
        </mask>
        <path d="M242.549 300.174C243.619 300.764 243.159 304.294 242.219 311.354C241.663 315.558 240.859 319.725 239.809 323.834C236.049 340.324 229.619 356.494 222.189 371.664C214.76 386.84 205.846 401.244 195.579 414.664C185.522 427.812 174.194 439.937 161.759 450.864C148.759 462.274 134.159 472.544 117.429 476.944C81.2291 486.464 41.8691 465.304 21.7191 433.764C1.56913 402.224 -2.28087 362.764 1.07913 325.464C5.99913 271.864 24.6891 220.464 46.8491 171.464C71.0291 117.954 100.429 65.2341 144.659 26.6141C158.489 14.4841 174.329 3.63409 192.439 0.674092C210.549 -2.28591 231.259 4.52409 240.059 20.6741C250.059 38.9541 242.189 61.4441 234.239 80.6741L199.669 164.354C195.719 173.924 191.319 184.054 182.669 189.784C174.019 195.514 159.949 194.094 156.089 184.494C152.769 176.234 158.309 167.324 163.319 159.954C188.681 122.579 206.389 80.5501 215.419 36.2941C216.639 30.2941 216.819 22.5341 211.309 19.9641C206.769 17.8441 201.609 21.0241 197.689 24.1441C135.979 73.2041 97.3391 145.684 68.5791 219.164C44.0991 281.734 25.3791 350.684 42.8291 415.574C47.3591 432.424 56.3691 450.574 73.1791 455.244C83.6191 458.144 94.7691 455.054 104.719 450.784C119.4 444.34 132.984 435.642 144.979 425.004C157.077 414.252 168.019 402.267 177.629 389.244C187.393 376.068 196.391 362.342 204.579 348.134C204.939 347.514 206.579 344.434 209.089 340.374C209.089 340.374 210.909 337.374 212.829 334.484C216.059 329.544 238.089 297.704 242.549 300.174ZM498.249 282.514C494.609 266.364 475.789 255.754 461.029 251.634C451.129 248.874 439.669 249.154 430.759 254.734C423.599 259.224 418.259 266.134 413.919 273.264C402.919 291.264 392.559 316.484 397.379 338.264C403.469 329.784 409.379 321.824 414.509 323.184C414.915 323.29 415.302 323.455 415.659 323.674C421.729 327.394 412.309 344.734 410.609 348.954C409.496 351.737 408.098 354.398 406.439 356.894C413.129 364.984 423.859 372.284 434.519 372.824H434.629C443.108 373.112 451.475 370.825 458.629 366.264C475.689 355.564 485.679 335.874 492.499 317.604C496.399 307.084 500.799 293.834 498.249 282.514ZM472.309 303.184C468.876 315.119 463.57 326.433 456.589 336.704C453.079 341.914 449.109 346.934 443.979 350.564C439.479 353.744 430.899 357.284 424.979 355.444C418.339 353.384 418.319 345.344 419.079 339.664C421.043 326.059 424.897 312.794 430.529 300.254C435.649 288.594 441.609 276.654 450.659 267.524C453.979 264.174 458.819 259.934 463.859 260.264C471.859 260.784 475.159 270.814 475.859 277.444C476.689 286.124 474.649 294.884 472.309 303.184ZM1005.47 287.894C1001.83 271.744 983.009 261.124 968.249 257.014C958.349 254.254 946.889 254.524 937.979 260.114C930.819 264.594 925.479 271.504 921.139 278.634C912.429 292.954 904.139 311.774 903.439 329.794C905.54 325.91 907.136 321.773 908.189 317.484C909.549 311.984 910.289 305.964 914.019 301.484C915.789 299.334 918.649 298.934 920.329 301.484C921.719 303.614 921.909 306.704 922.279 309.154C922.749 312.264 923.03 315.4 923.119 318.544C923.349 326.764 922.729 335.284 919.729 343.024C917.736 348.373 914.161 352.988 909.479 356.254C910.538 358.081 911.728 359.829 913.039 361.484C919.689 369.884 930.739 377.614 941.739 378.184H941.849C950.327 378.475 958.694 376.191 965.849 371.634C982.909 360.924 992.909 341.244 999.719 322.964C1003.62 312.464 1007.98 299.214 1005.47 287.894ZM979.529 308.564C976.098 320.498 970.795 331.812 963.819 342.084C960.299 347.294 956.329 352.314 951.199 355.944C946.699 359.124 938.119 362.664 932.199 360.824C925.559 358.764 925.539 350.724 926.299 345.034C928.264 331.429 932.118 318.164 937.749 305.624C942.859 294.004 948.819 282.004 957.879 272.904C961.189 269.554 966.029 265.304 971.069 265.634C979.069 266.154 982.369 276.194 983.069 282.824C983.909 291.494 981.879 300.264 979.529 308.564ZM683.299 354.294C682.919 350.714 684.139 348.294 680.579 348.854C675.879 349.594 675.509 349.104 671.919 349.344C637.549 351.664 602.919 347.574 568.609 344.414C551.459 342.844 568.219 325.914 573.259 319.364C597.819 287.464 628.259 258.744 665.809 242.924C669.989 241.164 675.129 238.084 674.149 233.654C673.619 232.005 672.643 230.534 671.329 229.404C665.779 223.734 658.779 217.904 650.919 218.984C646.539 219.594 642.769 222.284 639.239 224.984C624.799 235.894 611.449 246.214 598.429 258.814C593.429 263.704 580.129 277.624 567.749 291.724C568.509 280.574 578.959 260.444 582.859 250.054C586.949 239.164 591.349 228.404 595.099 217.394C603.259 193.434 611.286 169.434 619.179 145.394C630.799 109.934 644.389 72.0041 641.859 34.2041C641.489 28.6441 640.709 23.0141 638.439 17.9141C632.659 5.00409 615.979 -0.995908 602.909 4.00409C591.639 8.36409 584.399 19.2841 578.909 29.4941C564.809 55.7941 556.619 83.7141 547.689 111.984C544.089 123.384 540.589 136.784 537.189 152.184C536.419 155.694 535.569 159.184 534.789 162.704C517.279 241.364 510.039 321.584 515.719 402.004C516.019 406.294 516.419 410.754 518.649 414.434C521.869 419.744 528.179 422.234 534.139 423.954C535.816 424.496 537.552 424.831 539.309 424.954C541.086 425.096 542.857 424.608 544.309 423.574C547.469 421.154 547.409 416.464 547.049 412.504C545.649 397.154 543.859 379.274 542.469 363.934C588.469 371.354 636.189 370.084 680.279 361.934C685.179 361.064 683.799 359.004 683.299 354.294ZM556.849 218.354C567.056 155.182 583.782 93.2379 606.759 33.5141C608.919 27.9441 616.659 14.9141 622.119 24.1941C625.349 29.6941 624.169 39.0841 623.849 45.0941C623.171 59.2832 621.186 73.3795 617.919 87.2041C615.919 95.6341 613.479 103.974 610.919 112.284C605.919 128.754 601.109 145.284 596.019 161.714C588.209 186.714 580.019 211.524 569.319 235.484C563.629 248.264 558.049 261.324 551.369 273.634C551.159 258.004 554.309 233.854 556.849 218.354ZM1194.35 355.354C1193.98 351.774 1195.19 349.354 1191.63 349.914C1186.93 350.654 1186.56 350.164 1182.97 350.404C1148.6 352.724 1113.97 348.634 1079.67 345.484C1062.51 343.904 1079.27 326.974 1084.31 320.424C1108.87 288.524 1139.31 259.804 1176.86 243.994C1181.04 242.224 1186.18 239.154 1185.2 234.724C1184.67 233.072 1183.69 231.598 1182.38 230.464C1176.83 224.794 1169.84 218.974 1161.97 220.054C1157.59 220.654 1153.82 223.344 1150.29 226.054C1135.85 236.964 1122.5 247.284 1109.49 259.894C1104.49 264.784 1091.18 278.694 1078.81 292.794C1079.56 281.654 1090.01 261.514 1093.92 251.124C1098.01 240.244 1102.4 229.474 1106.15 218.464C1114.31 194.517 1122.34 170.517 1130.23 146.464C1141.85 111.034 1155.44 73.1541 1152.91 35.3041C1152.54 29.7441 1151.76 24.1141 1149.49 19.0241C1143.71 6.08409 1126.98 0.0740919 1113.98 5.11409C1102.71 9.47409 1095.47 20.3941 1089.98 30.6041C1075.88 56.9041 1067.69 84.8241 1058.77 113.094C1055.17 124.494 1051.67 137.894 1048.27 153.294C1047.49 156.804 1046.65 160.294 1045.86 163.824C1028.35 242.474 1021.1 322.694 1026.78 403.154C1027.08 407.444 1027.48 411.914 1029.71 415.584C1032.93 420.894 1039.24 423.384 1045.21 425.114C1046.89 425.657 1048.62 425.992 1050.38 426.114C1052.16 426.254 1053.93 425.765 1055.38 424.734C1058.53 422.314 1058.47 417.624 1058.11 413.664C1056.71 398.324 1054.93 380.444 1053.53 365.094C1099.53 372.514 1147.25 371.244 1191.34 363.094C1196.23 362.184 1194.85 360.104 1194.35 355.404V355.354ZM1067.9 219.474C1078.1 156.302 1094.83 94.3571 1117.81 34.6341C1119.97 29.0541 1127.71 16.0241 1133.17 25.3141C1136.4 30.8141 1135.17 40.1941 1134.9 46.2041C1134.22 60.3929 1132.24 74.4893 1128.98 88.3141C1122.84 113.484 1113.74 137.804 1107.36 162.894L1101.06 180.594C1095.63 200.314 1089 219.704 1079.65 237.934C1074.31 248.364 1068 264.564 1062.48 274.744C1062.21 259.144 1065.36 235.004 1067.9 219.474ZM923.119 318.474C923.03 315.33 922.749 312.194 922.279 309.084C921.909 306.634 921.719 303.544 920.329 301.414C918.649 298.844 915.789 299.244 914.019 301.414C910.289 305.934 909.549 311.954 908.189 317.414C907.136 321.703 905.54 325.84 903.439 329.724C902.654 331.189 901.797 332.615 900.869 333.994C897.439 339.124 892.739 344.884 886.629 346.774C880.889 348.554 878.239 343.174 875.969 338.964C874.022 335.301 872.396 331.477 871.109 327.534C868.663 319.677 866.771 311.657 865.449 303.534C863.839 294.814 862.449 286.054 860.139 277.474C858.139 269.834 855.719 261.074 849.199 256.004C838.139 247.394 821.069 251.634 811.589 260.464C806.369 265.324 803.009 272.464 799.899 278.864C797.069 284.654 794.899 290.814 791.759 296.464C790.509 298.754 788.989 299.534 787.999 296.554C785.759 289.824 784.179 282.904 782.279 276.084C780.599 270.084 779.409 263.434 776.179 258.084C772.469 251.894 766.009 248.524 759.049 247.394C753.049 246.394 745.879 246.264 740.049 248.054C735.923 249.281 732.359 251.918 729.979 255.504C728.573 257.857 727.349 260.314 726.319 262.854C724.679 266.534 723.199 270.344 721.219 273.854C720.409 275.284 718.619 277.954 718.039 274.854C716.089 264.464 720.139 251.604 723.199 240.964C724.759 235.534 726.519 228.864 719.999 225.644C719.222 225.272 718.407 224.983 717.569 224.784C710.757 223.119 703.7 222.699 696.739 223.544C695.175 223.593 693.664 224.12 692.409 225.054C690.899 226.394 690.579 228.584 690.409 230.584C685.098 278.577 682.241 326.81 681.849 375.094C681.818 376.635 682.187 378.158 682.919 379.514C683.402 380.547 684.086 381.473 684.931 382.239C685.775 383.004 686.764 383.594 687.839 383.974C697.119 386.974 705.839 388.244 715.679 386.724C716.349 373.274 717.479 359.544 720.679 346.444C723.249 336.134 725.569 324.854 728.519 314.664C728.519 314.664 733.439 298.334 735.389 291.934L739.189 282.934C743.189 273.374 748.539 257.344 752.929 264.744C760.069 276.804 753.679 319.094 772.099 339.244C775.099 342.494 779.099 345.014 783.479 345.244C789.289 345.554 794.689 341.784 798.029 337.014C801.369 332.244 803.029 326.564 804.909 321.014C810.979 302.724 815.229 283.004 828.979 270.204C834.639 264.914 838.189 294.614 840.769 308.304C843.349 321.994 847.189 336.024 856.909 345.874C863.979 353.034 873.569 357.414 883.299 359.544C889.969 361.014 896.689 361.744 903.299 359.404C905.506 358.626 907.601 357.56 909.529 356.234C914.192 352.961 917.749 348.346 919.729 343.004C922.729 335.264 923.349 326.744 923.119 318.524V318.474ZM1286.07 267.144C1286.36 267.623 1286.62 268.12 1286.85 268.634C1287.5 270.179 1287.84 271.837 1287.85 273.514C1288.08 283.364 1285.38 295.104 1282.13 304.944C1276.01 323.494 1271.86 332.414 1265.62 345.944C1258.94 360.404 1255.04 365.604 1244.11 371.534C1239.9 373.836 1235.12 374.871 1230.34 374.516C1225.56 374.162 1220.99 372.431 1217.17 369.534C1209.17 363.434 1203.98 354.354 1200.44 344.964C1192.86 324.804 1192.24 302.724 1193.29 281.224C1193.77 268.911 1195.13 256.649 1197.38 244.534C1197.87 241.914 1199.21 239.529 1201.19 237.744C1203.35 235.754 1206.2 234.672 1209.14 234.72C1212.07 234.769 1214.88 235.944 1216.98 238.004C1224.14 244.594 1221.4 257.894 1220.13 265.834C1216.7 287.354 1213.81 311.004 1217.35 332.454C1218.3 338.254 1220.76 346.564 1223.84 351.564C1226.84 356.394 1231.33 358.884 1234.05 358.244C1240.36 356.764 1245.62 351.634 1248.34 347.674C1261.9 327.834 1267.01 300.084 1271.92 276.544C1272.35 273.865 1272.95 271.213 1273.7 268.604C1274.11 267.367 1274.87 266.273 1275.89 265.452C1276.9 264.631 1278.13 264.116 1279.43 263.968C1280.72 263.82 1282.03 264.045 1283.21 264.617C1284.38 265.188 1285.37 266.082 1286.05 267.194L1286.07 267.144ZM1230.21 211.804C1227.67 212.494 1224.14 211.094 1222.02 210.474C1214.82 208.354 1208.85 205.224 1206.87 197.314C1205.38 191.404 1206.65 185.114 1208.87 179.454C1209.38 177.781 1210.38 176.3 1211.75 175.204C1212.97 174.51 1214.34 174.113 1215.75 174.044C1219.35 173.624 1222.98 173.434 1226.61 173.474C1229.81 173.474 1232.61 174.684 1233.81 177.844C1234.32 179.378 1234.59 180.979 1234.63 182.594C1234.89 188.563 1234.76 194.543 1234.22 200.494C1234.04 203.854 1234.41 210.724 1230.21 211.854V211.804ZM415.689 323.644C415.332 323.425 414.945 323.26 414.539 323.154C409.399 321.794 403.539 329.754 397.409 338.234C388.669 350.414 379.539 363.644 371.699 351.834C364.059 340.334 366.139 320.734 365.089 307.524L360.979 256.004C359.979 243.244 351.309 230.634 336.889 235.464C320.619 240.914 310.839 262.354 304.409 276.734C296.819 293.734 291.579 311.634 285.699 329.264C283.999 334.364 278.119 345.664 279.069 350.774C276.069 334.614 273.069 317.864 277.069 301.914C282.449 280.154 297.019 258.444 307.429 238.644C317.629 219.244 325.829 202.344 332.029 187.944C345.689 156.204 356.849 123.284 363.689 89.3741C368.989 63.1341 380.379 17.9341 348.549 3.19409C332.899 -4.04591 313.549 3.73409 302.299 16.7641C288.979 32.0541 284.489 52.3741 278.569 71.1741C271.509 93.6141 265.279 116.314 260.169 139.284C251.399 178.704 246.279 218.644 245.879 259.004L245.579 289.004C245.579 318.004 247.179 340.004 250.379 355.004C254.779 377.604 269.179 404.304 270.779 405.704C272.378 407.104 274.204 408.22 276.179 409.004C277.985 409.764 279.92 410.171 281.879 410.204C282.891 410.24 283.895 410.01 284.79 409.536C285.685 409.062 286.44 408.361 286.979 407.504C289.179 404.504 291.079 397.404 292.679 386.204C293.754 376.504 295.458 366.884 297.779 357.404C302.469 338.954 307.019 320.574 312.079 302.214C312.999 298.894 313.909 295.564 315.019 292.304C317.899 283.874 322.309 273.574 328.609 266.134C329.102 265.556 329.76 265.143 330.495 264.95C331.23 264.758 332.006 264.794 332.719 265.056C333.432 265.317 334.048 265.79 334.485 266.412C334.921 267.034 335.156 267.775 335.159 268.534C335.269 281.964 335.639 295.074 337.399 308.664C339.509 324.964 342.069 341.974 351.719 355.274C360.079 366.794 375.719 374.974 389.929 370.274C396.819 367.984 402.419 362.954 406.439 356.834C408.098 354.338 409.496 351.677 410.609 348.894C412.309 344.694 421.729 327.354 415.659 323.634L415.689 323.644ZM276.779 249.424C277.779 230.224 280.029 207.024 283.529 179.824C287.279 151.375 292.942 123.211 300.479 95.5241C304.48 80.1928 309.426 65.124 315.289 50.4041C317.769 44.3141 320.139 38.2041 322.899 32.2341C326.899 23.5241 336.269 2.83409 344.349 20.6441C350.259 33.6441 351.809 48.3241 350.939 62.6441C347.489 119.644 321.649 175.074 296.589 225.344C293.119 232.344 289.669 239.284 286.079 246.174L275.879 265.674L276.779 249.424Z" stroke="black" stroke-width="4" mask="url(#path-1-inside-1_10_95)"/>
        </svg>